Coordinates
version=1
nRows=13
nColumns=40
inDegrees=yes

Units are S.I. units (second, meters, Newtons, ...)
If the header above contains a line with 'inDegrees', this indicates whether rotational values are in degrees (yes) or radians (no).

endheader
time	pelvis_tilt	pelvis_list	pelvis_rotation	pelvis_tx	pelvis_ty	pelvis_tz	hip_flexion_r	hip_adduction_r	hip_rotation_r	knee_angle_r	knee_angle_r_beta	ankle_angle_r	subtalar_angle_r	mtp_angle_r	hip_flexion_l	hip_adduction_l	hip_rotation_l	knee_angle_l	knee_angle_l_beta	ankle_angle_l	subtalar_angle_l	mtp_angle_l	lumbar_extension	lumbar_bending	lumbar_rotation	arm_flex_r	arm_add_r	arm_rot_r	elbow_flex_r	pro_sup_r	wrist_flex_r	wrist_dev_r	arm_flex_l	arm_add_l	arm_rot_l	elbow_flex_l	pro_sup_l	wrist_flex_l	wrist_dev_l
      2.98666667	      8.14663081	     -4.27398163	     -2.19341535	      0.37150795	      0.89222777	     -0.31347802	      2.69524059	      5.56558105	      1.10133076	     20.61493377	      0.35979847	      9.73937992	      0.00000000	      0.00000000	      7.68410160	    -10.22612322	    -13.47978046	     60.50633436	      1.05603475	      8.07754991	      0.00000000	      0.00000000	    -22.19088434	      9.76301182	      9.92808773	      0.00000000	    -10.93077996	      0.00000000	     74.68726150	     45.07556669	      0.00000000	      0.00000000	      0.00000000	    -10.93077996	      0.00000000	     74.68726150	     45.07556669	      0.00000000	      0.00000000
      2.99333333	      8.08320706	     -4.22141107	     -2.34612438	      0.37928396	      0.89314850	     -0.31332867	      2.06384170	      5.46582165	      1.00739355	     20.43888824	      0.35672590	      9.75938140	      0.00000000	      0.00000000	      8.79185366	    -10.21719826	    -13.68868093	     59.82790707	      1.04419396	      8.16844379	      0.00000000	      0.00000000	    -22.38168378	      9.72210356	      9.98866146	      0.00000000	    -10.93191610	      0.00000000	     74.68743239	     45.07545217	      0.00000000	      0.00000000	      0.00000000	    -10.93191610	      0.00000000	     74.68743239	     45.07545217	      0.00000000	      0.00000000
      3.00000000	      8.07215906	     -3.93585861	     -2.49022945	      0.38742490	      0.89432584	     -0.31330416	      1.09140227	      5.10841973	      1.27810481	     19.66929131	      0.34329389	      9.82209708	      0.00000000	      0.00000000	      9.69876345	     -9.85702378	    -13.88627482	     58.81873196	      1.02658053	      8.55484169	      0.00000000	      0.00000000	    -22.23860450	      9.40399504	     10.29686096	      0.00000000	    -10.93602763	      0.00000000	     74.68805061	     45.07503872	      0.00000000	      0.00000000	      0.00000000	    -10.93602763	      0.00000000	     74.68805061	     45.07503872	      0.00000000	      0.00000000
      3.00666667	      8.34371888	     -3.85058418	     -2.71083457	      0.39538531	      0.89561898	     -0.31320617	     -0.14264412	      4.95487220	      1.51721823	     19.01630238	      0.33189709	      9.91519852	      0.00000000	      0.00000000	     10.20903638	     -9.76392822	    -14.22763735	     57.70015641	      1.00705771	     10.34732111	      0.00000000	      0.00000000	    -22.80221793	      9.24264786	     11.04568958	      0.00000000	    -10.96109866	      0.00000000	     74.69180806	     45.07255588	      0.00000000	      0.00000000	      0.00000000	    -10.96109866	      0.00000000	     74.69180806	     45.07255588	      0.00000000	      0.00000000
      3.01333333	      8.27777031	     -3.71390652	     -2.93640444	      0.40337540	      0.89645468	     -0.31315116	     -0.89493703	      4.72570727	      1.61352611	     18.57201333	      0.32414278	      9.92945013	      0.00000000	      0.00000000	     11.10864742	     -9.60456032	    -14.50050851	     56.53541485	      0.98672913	     10.59282997	      0.00000000	      0.00000000	    -22.80082951	      9.07067841	     11.19599436	      0.00000000	    -10.96716854	      0.00000000	     74.69271435	     45.07196512	      0.00000000	      0.00000000	      0.00000000	    -10.96716854	      0.00000000	     74.69271435	     45.07196512	      0.00000000	      0.00000000
      3.02000000	      8.33661111	     -3.61325435	     -3.16882842	      0.41135996	      0.89736615	     -0.31312310	     -1.80676455	      4.52020436	      1.71002835	     18.08518044	      0.31564594	      9.92777935	      0.00000000	      0.00000000	     11.80280251	     -9.47975671	    -14.80123575	     55.23520655	      0.96403622	     10.92111080	      0.00000000	      0.00000000	    -22.99103094	      8.93091291	     11.48012007	      0.00000000	    -10.97441179	      0.00000000	     74.69379419	     45.07126516	      0.00000000	      0.00000000	      0.00000000	    -10.97441179	      0.00000000	     74.69379419	     45.07126516	      0.00000000	      0.00000000
      3.02666667	      8.22820214	     -3.74822295	     -3.36190839	      0.41912841	      0.89781529	     -0.31310915	     -2.34456144	      4.57635003	      1.52428515	     18.01115380	      0.31435394	      9.93374410	      0.00000000	      0.00000000	     12.76060444	     -9.66760377	    -14.99844303	     54.07349476	      0.94376052	     10.96799776	      0.00000000	      0.00000000	    -23.17258031	      9.01572829	     11.52652148	      0.00000000	    -10.97537450	      0.00000000	     74.69393751	     45.07117266	      0.00000000	      0.00000000	      0.00000000	    -10.97537450	      0.00000000	     74.69393751	     45.07117266	      0.00000000	      0.00000000
      3.03333333	      8.30456237	     -3.53384077	     -3.64330060	      0.42742032	      0.89876528	     -0.31321051	     -3.39184295	      4.20507586	      1.72579937	     17.29184830	      0.30179969	      9.91284545	      0.00000000	      0.00000000	     13.22210894	     -9.34825258	    -15.35974119	     52.38037806	      0.91421006	     11.25533317	      0.00000000	      0.00000000	    -23.10639040	      8.85101943	     11.92927845	      0.00000000	    -10.98025027	      0.00000000	     74.69466310	     45.07070534	      0.00000000	      0.00000000	      0.00000000	    -10.98025027	      0.00000000	     74.69466310	     45.07070534	      0.00000000	      0.00000000
      3.04000000	      8.62581139	     -3.51331627	     -3.92290840	      0.43549046	      0.89971326	     -0.31325679	     -4.63264833	      4.02645351	      1.81027289	     16.73532818	      0.29208658	      9.79377725	      0.00000000	      0.00000000	     13.40248283	     -9.29167720	    -15.75065000	     50.72542371	      0.88532566	     11.79634375	      0.00000000	      0.00000000	    -23.66400473	      8.75745776	     12.51110741	      0.00000000	    -10.99037843	      0.00000000	     74.69616763	     45.06974279	      0.00000000	      0.00000000	      0.00000000	    -10.99037843	      0.00000000	     74.69616763	     45.06974279	      0.00000000	      0.00000000
      3.04666667	      8.53518787	     -3.63194751	     -4.17853019	      0.44357262	      0.90006293	     -0.31344876	     -5.24907444	      3.99977998	      1.64092148	     16.54861128	      0.28882775	      9.76642595	      0.00000000	      0.00000000	     14.08531079	     -9.39740268	    -15.99669159	     49.14951839	      0.85782092	     11.91598082	      0.00000000	      0.00000000	    -23.62474744	      9.04841689	     12.64147549	      0.00000000	    -10.99309937	      0.00000000	     74.69657119	     45.06948600	      0.00000000	      0.00000000	      0.00000000	    -10.99309937	      0.00000000	     74.69657119	     45.06948600	      0.00000000	      0.00000000
      3.05333333	      8.70115460	     -3.56662125	     -4.44180587	      0.45174833	      0.90072121	     -0.31350842	     -6.31370381	      3.76719420	      1.69248578	     15.98882946	      0.27905772	      9.63098105	      0.00000000	      0.00000000	     14.35610964	     -9.25888606	    -16.30997096	     47.32832281	      0.82603506	     12.23294719	      0.00000000	      0.00000000	    -23.91564724	      8.78319267	     13.11291510	      0.00000000	    -11.00075625	      0.00000000	     74.69770566	     45.06876700	      0.00000000	      0.00000000	      0.00000000	    -11.00075625	      0.00000000	     74.69770566	     45.06876700	      0.00000000	      0.00000000
      3.06000000	      8.70071874	     -3.71301349	     -4.71022981	      0.45987801	      0.90101109	     -0.31373338	     -7.03967961	      3.74294028	      1.52076361	     15.78320400	      0.27546888	      9.55122108	      0.00000000	      0.00000000	     14.81780591	     -9.37241578	    -16.55016246	     45.57025517	      0.79535099	     12.35777446	      0.00000000	      0.00000000	    -24.00426615	      9.05890944	     13.32428315	      0.00000000	    -11.00500123	      0.00000000	     74.69833363	     45.06837124	      0.00000000	      0.00000000	      0.00000000	    -11.00500123	      0.00000000	     74.69833363	     45.06837124	      0.00000000	      0.00000000
      3.06666667	      8.97267477	     -3.74538930	     -4.96929998	      0.46808704	      0.90156413	     -0.31388818	     -8.16971618	      3.57598198	      1.45173536	     15.34955870	      0.26790034	      9.26182189	      0.00000000	      0.00000000	     14.86084114	     -9.32590492	    -16.85409024	     43.61838415	      0.76128442	     12.57858533	      0.00000000	      0.00000000	    -24.46263588	      8.97080369	     13.85012463	      0.00000000	    -11.01816854	      0.00000000	     74.70027736	     45.06715587	      0.00000000	      0.00000000	      0.00000000	    -11.01816854	      0.00000000	     74.70027736	     45.06715587	      0.00000000	      0.00000000
